<svg viewBox="0 0 128.58 128.57" xmlns="http://www.w3.org/2000/svg" id="Layer_2"><defs><style>.cls-1{fill:#b18b5b;}</style></defs><g id="Layer_2-2"><g id="Layer_1-2"><path d="M126.29,58.77L69.8,2.28c-1.52-1.52-3.52-2.28-5.51-2.28s-3.99.76-5.51,2.28L2.29,58.77c-3.05,3.05-3.05,7.98,0,11.03l56.49,56.49c1.52,1.52,3.52,2.28,5.51,2.28s3.99-.76,5.51-2.28l56.49-56.49c3.05-3.05,3.05-7.98,0-11.03ZM96.31,52.88c-.5.49-.78,1.16-.78,1.85v37.34c0,1.43-1.17,2.6-2.6,2.6h-57.28c-1.43,0-2.6-1.17-2.6-2.6v-37.34c0-.7-.28-1.36-.78-1.85-3.95-3.88-5.31-8.27-3.71-12.04,1.52-3.6,5.27-5.93,9.54-5.93,6.3,0,13.29,2.84,19.7,8,1,.8,1.97,1.65,2.9,2.54-3.55,4.08-6.44,8.63-8.29,13.16-3.82,9.33-2.91,17.73,2.49,23.05,2.51,2.47,5.85,3.83,9.39,3.83s6.88-1.36,9.39-3.83c5.4-5.31,6.31-13.71,2.49-23.05-1.85-4.53-4.74-9.08-8.29-13.16.93-.89,1.9-1.73,2.9-2.54,6.41-5.16,13.4-8,19.7-8,4.27,0,8.02,2.33,9.54,5.93,1.59,3.77.24,8.16-3.71,12.04h0ZM64.29,49.23c3.03,3.55,5.49,7.46,7.08,11.34,4.08,9.97.92,15.16-1.33,17.37-1.53,1.51-3.57,2.34-5.75,2.34s-4.22-.83-5.75-2.34c-2.25-2.21-5.41-7.4-1.33-17.37,1.59-3.89,4.04-7.79,7.08-11.34ZM62.45,5.96c.66-.66,1.44-.76,1.84-.76s1.18.1,1.84.76l23.78,23.78c-7.32.16-15.24,3.37-22.38,9.11-1.11.9-2.2,1.84-3.24,2.83-1.04-.99-2.12-1.94-3.24-2.83-7.14-5.75-15.06-8.96-22.38-9.11,0,0,23.78-23.78,23.78-23.78ZM5.96,62.45l16.85-16.85c.4,3.51,2.11,7.04,5.04,10.19v32.23l-21.89-21.89c-1.01-1.02-1.01-2.67,0-3.68ZM66.13,122.61c-.66.66-1.44.76-1.84.76s-1.18-.1-1.84-.76l-22.75-22.75h49.18l-22.75,22.75ZM122.62,66.13l-21.89,21.89v-32.23c2.93-3.15,4.64-6.68,5.04-10.19l16.85,16.85c1.01,1.01,1.01,2.67,0,3.68h0Z" class="cls-1"></path></g></g></svg>